<?xml version="1.0" standalone="no"?>
<!DOCTYPE svg PUBLIC "-//W3C//DTD SVG 20010904//EN"
 "http://www.w3.org/TR/2001/REC-SVG-20010904/DTD/svg10.dtd">
<svg version="1.0" xmlns="http://www.w3.org/2000/svg"
 width="512.000000pt" height="512.000000pt" viewBox="0 0 512.000000 512.000000"
 preserveAspectRatio="xMidYMid meet">

<g transform="translate(0.000000,512.000000) scale(0.100000,-0.100000)"
fill="#000000" stroke="none">
<path d="M2 3098 c1 -1113 3 -1996 5 -1963 2 33 10 119 19 190 101 827 448
1272 1029 1320 111 9 154 -7 355 -136 197 -127 216 -137 347 -183 147 -51 240
-67 378 -67 248 0 443 66 712 240 219 141 231 146 339 145 151 -3 279 -36 426
-111 177 -91 318 -245 433 -478 99 -198 152 -386 197 -688 16 -114 21 -194 22
-402 1 -299 -7 -347 -88 -510 -120 -242 -351 -401 -642 -444 -36 -5 258 -9
764 -10 l822 -1 0 2560 0 2560 -1452 -1 c-1274 -1 -1442 -3 -1364 -15 298 -46
566 -204 761 -447 159 -198 241 -400 265 -656 36 -373 -95 -728 -366 -994
-113 -110 -182 -160 -319 -227 -316 -157 -702 -167 -1033 -27 -180 77 -382
241 -508 412 -146 198 -219 410 -231 670 -17 359 116 688 380 942 202 194 413
293 717 337 14 2 -424 4 -972 5 l-998 1 2 -2022z"/>
<path d="M1 388 l-1 -388 398 1 c255 1 377 4 340 10 -104 15 -182 40 -283 89
-240 118 -394 327 -440 598 -12 70 -13 41 -14 -310z"/>
</g>
</svg>
